<mxfile host="Electron" modified="2023-06-16T11:48:31.585Z" agent="Mozilla/5.0 (Macintosh; Intel Mac OS X 10_15_7) AppleWebKit/537.36 (KHTML, like Gecko) draw.io/21.4.0 Chrome/112.0.5615.204 Electron/24.5.1 Safari/537.36" etag="HVx4zR8lajKvVqoThcoT" version="21.4.0" type="device" pages="3">
  <diagram id="YUVKMwIvgt-KgfQPNtqe" name="Page-1">
    <mxGraphModel dx="2373" dy="-275" grid="1" gridSize="10" guides="1" tooltips="1" connect="1" arrows="1" fold="1" page="1" pageScale="1" pageWidth="827" pageHeight="1169" math="0" shadow="0">
      <root>
        <mxCell id="0" />
        <mxCell id="1" parent="0" />
        <mxCell id="u_Y_CnP3Xngak4G7NMiM-49" value="" style="rounded=1;whiteSpace=wrap;html=1;fillColor=none;dashed=1;dashPattern=8 8;strokeWidth=3;strokeColor=#FF3333;" parent="1" vertex="1">
          <mxGeometry x="165" y="1754" width="690" height="1420" as="geometry" />
        </mxCell>
        <mxCell id="u_Y_CnP3Xngak4G7NMiM-1" value="Public subnet" style="points=[[0,0],[0.25,0],[0.5,0],[0.75,0],[1,0],[1,0.25],[1,0.5],[1,0.75],[1,1],[0.75,1],[0.5,1],[0.25,1],[0,1],[0,0.75],[0,0.5],[0,0.25]];outlineConnect=0;gradientColor=none;html=1;whiteSpace=wrap;fontSize=12;fontStyle=0;container=1;pointerEvents=0;collapsible=0;recursiveResize=0;shape=mxgraph.aws4.group;grIcon=mxgraph.aws4.group_security_group;grStroke=0;strokeColor=#248814;fillColor=#E9F3E6;verticalAlign=top;align=left;spacingLeft=30;fontColor=#248814;dashed=0;" parent="1" vertex="1">
          <mxGeometry x="-100" y="2970" width="960" height="164" as="geometry" />
        </mxCell>
        <mxCell id="u_Y_CnP3Xngak4G7NMiM-2" value="Internet gateway" style="sketch=0;outlineConnect=0;fontColor=#232F3E;gradientColor=none;fillColor=#4D27AA;strokeColor=none;dashed=0;verticalLabelPosition=bottom;verticalAlign=top;align=center;html=1;fontSize=12;fontStyle=0;aspect=fixed;pointerEvents=1;shape=mxgraph.aws4.internet_gateway;" parent="u_Y_CnP3Xngak4G7NMiM-1" vertex="1">
          <mxGeometry x="566.5" y="35" width="78" height="78" as="geometry" />
        </mxCell>
        <mxCell id="u_Y_CnP3Xngak4G7NMiM-3" value="Private subnet" style="points=[[0,0],[0.25,0],[0.5,0],[0.75,0],[1,0],[1,0.25],[1,0.5],[1,0.75],[1,1],[0.75,1],[0.5,1],[0.25,1],[0,1],[0,0.75],[0,0.5],[0,0.25]];outlineConnect=0;gradientColor=none;html=1;whiteSpace=wrap;fontSize=12;fontStyle=0;container=0;pointerEvents=0;collapsible=0;recursiveResize=0;shape=mxgraph.aws4.group;grIcon=mxgraph.aws4.group_security_group;grStroke=0;strokeColor=#147EBA;fillColor=#E6F2F8;verticalAlign=top;align=left;spacingLeft=30;fontColor=#147EBA;dashed=0;" parent="1" vertex="1">
          <mxGeometry x="-100" y="2544" width="955" height="390" as="geometry" />
        </mxCell>
        <mxCell id="u_Y_CnP3Xngak4G7NMiM-4" value="Private subnet" style="points=[[0,0],[0.25,0],[0.5,0],[0.75,0],[1,0],[1,0.25],[1,0.5],[1,0.75],[1,1],[0.75,1],[0.5,1],[0.25,1],[0,1],[0,0.75],[0,0.5],[0,0.25]];outlineConnect=0;gradientColor=none;html=1;whiteSpace=wrap;fontSize=12;fontStyle=0;container=0;pointerEvents=0;collapsible=0;recursiveResize=0;shape=mxgraph.aws4.group;grIcon=mxgraph.aws4.group_security_group;grStroke=0;strokeColor=#147EBA;fillColor=#E6F2F8;verticalAlign=top;align=left;spacingLeft=30;fontColor=#147EBA;dashed=0;" parent="1" vertex="1">
          <mxGeometry x="-100" y="2089" width="960" height="400" as="geometry" />
        </mxCell>
        <mxCell id="u_Y_CnP3Xngak4G7NMiM-5" value="VPC" style="points=[[0,0],[0.25,0],[0.5,0],[0.75,0],[1,0],[1,0.25],[1,0.5],[1,0.75],[1,1],[0.75,1],[0.5,1],[0.25,1],[0,1],[0,0.75],[0,0.5],[0,0.25]];outlineConnect=0;gradientColor=none;html=1;whiteSpace=wrap;fontSize=12;fontStyle=0;container=1;pointerEvents=0;collapsible=0;recursiveResize=0;shape=mxgraph.aws4.group;grIcon=mxgraph.aws4.group_vpc;strokeColor=#248814;fillColor=none;verticalAlign=top;align=left;spacingLeft=30;fontColor=#AAB7B8;dashed=0;" parent="1" vertex="1">
          <mxGeometry x="-140" y="2004" width="1040" height="1220" as="geometry" />
        </mxCell>
        <mxCell id="u_Y_CnP3Xngak4G7NMiM-6" value="AWS Cloud" style="points=[[0,0],[0.25,0],[0.5,0],[0.75,0],[1,0],[1,0.25],[1,0.5],[1,0.75],[1,1],[0.75,1],[0.5,1],[0.25,1],[0,1],[0,0.75],[0,0.5],[0,0.25]];outlineConnect=0;gradientColor=none;html=1;whiteSpace=wrap;fontSize=12;fontStyle=0;container=0;pointerEvents=0;collapsible=0;recursiveResize=0;shape=mxgraph.aws4.group;grIcon=mxgraph.aws4.group_aws_cloud_alt;strokeColor=#232F3E;fillColor=none;verticalAlign=top;align=left;spacingLeft=30;fontColor=#232F3E;dashed=0;" parent="1" vertex="1">
          <mxGeometry x="-260" y="1764" width="1210" height="1500" as="geometry" />
        </mxCell>
        <mxCell id="u_Y_CnP3Xngak4G7NMiM-7" style="edgeStyle=orthogonalEdgeStyle;curved=1;rounded=0;orthogonalLoop=1;jettySize=auto;html=1;exitX=0.75;exitY=1;exitDx=0;exitDy=0;" parent="1" source="u_Y_CnP3Xngak4G7NMiM-8" target="u_Y_CnP3Xngak4G7NMiM-15" edge="1">
          <mxGeometry relative="1" as="geometry" />
        </mxCell>
        <mxCell id="u_Y_CnP3Xngak4G7NMiM-8" value="EC2 instance contents" style="points=[[0,0],[0.25,0],[0.5,0],[0.75,0],[1,0],[1,0.25],[1,0.5],[1,0.75],[1,1],[0.75,1],[0.5,1],[0.25,1],[0,1],[0,0.75],[0,0.5],[0,0.25]];outlineConnect=0;gradientColor=none;html=1;whiteSpace=wrap;fontSize=12;fontStyle=0;container=1;pointerEvents=0;collapsible=0;recursiveResize=0;shape=mxgraph.aws4.group;grIcon=mxgraph.aws4.group_ec2_instance_contents;strokeColor=#D86613;fillColor=none;verticalAlign=top;align=left;spacingLeft=30;fontColor=#D86613;dashed=0;" parent="1" vertex="1">
          <mxGeometry x="385" y="2151" width="220" height="120" as="geometry" />
        </mxCell>
        <mxCell id="u_Y_CnP3Xngak4G7NMiM-9" value="AWS Systems Manager" style="sketch=0;points=[[0,0,0],[0.25,0,0],[0.5,0,0],[0.75,0,0],[1,0,0],[0,1,0],[0.25,1,0],[0.5,1,0],[0.75,1,0],[1,1,0],[0,0.25,0],[0,0.5,0],[0,0.75,0],[1,0.25,0],[1,0.5,0],[1,0.75,0]];points=[[0,0,0],[0.25,0,0],[0.5,0,0],[0.75,0,0],[1,0,0],[0,1,0],[0.25,1,0],[0.5,1,0],[0.75,1,0],[1,1,0],[0,0.25,0],[0,0.5,0],[0,0.75,0],[1,0.25,0],[1,0.5,0],[1,0.75,0]];outlineConnect=0;fontColor=#232F3E;gradientColor=#F34482;gradientDirection=north;fillColor=#BC1356;strokeColor=#ffffff;dashed=0;verticalLabelPosition=bottom;verticalAlign=top;align=center;html=1;fontSize=12;fontStyle=0;aspect=fixed;shape=mxgraph.aws4.resourceIcon;resIcon=mxgraph.aws4.systems_manager;" parent="1" vertex="1">
          <mxGeometry x="712" y="1784" width="78" height="78" as="geometry" />
        </mxCell>
        <mxCell id="u_Y_CnP3Xngak4G7NMiM-10" value="Auto Scaling group" style="points=[[0,0],[0.25,0],[0.5,0],[0.75,0],[1,0],[1,0.25],[1,0.5],[1,0.75],[1,1],[0.75,1],[0.5,1],[0.25,1],[0,1],[0,0.75],[0,0.5],[0,0.25]];outlineConnect=0;gradientColor=none;html=1;whiteSpace=wrap;fontSize=12;fontStyle=0;container=0;pointerEvents=0;collapsible=0;recursiveResize=0;shape=mxgraph.aws4.groupCenter;grIcon=mxgraph.aws4.group_auto_scaling_group;grStroke=1;strokeColor=#D86613;fillColor=none;verticalAlign=top;align=center;fontColor=#D86613;dashed=1;spacingTop=25;" parent="1" vertex="1">
          <mxGeometry x="360" y="2034" width="270" height="899" as="geometry" />
        </mxCell>
        <mxCell id="u_Y_CnP3Xngak4G7NMiM-11" value="Availability Zone" style="fillColor=none;strokeColor=#147EBA;dashed=1;verticalAlign=top;fontStyle=0;fontColor=#147EBA;" parent="1" vertex="1">
          <mxGeometry x="-70" y="2584" width="810" height="330" as="geometry" />
        </mxCell>
        <mxCell id="u_Y_CnP3Xngak4G7NMiM-12" value="EC2 instance contents" style="points=[[0,0],[0.25,0],[0.5,0],[0.75,0],[1,0],[1,0.25],[1,0.5],[1,0.75],[1,1],[0.75,1],[0.5,1],[0.25,1],[0,1],[0,0.75],[0,0.5],[0,0.25]];outlineConnect=0;gradientColor=none;html=1;whiteSpace=wrap;fontSize=12;fontStyle=0;container=1;pointerEvents=0;collapsible=0;recursiveResize=0;shape=mxgraph.aws4.group;grIcon=mxgraph.aws4.group_ec2_instance_contents;strokeColor=#D86613;fillColor=none;verticalAlign=top;align=left;spacingLeft=30;fontColor=#D86613;dashed=0;" parent="1" vertex="1">
          <mxGeometry x="385" y="2606" width="225" height="118" as="geometry" />
        </mxCell>
        <mxCell id="u_Y_CnP3Xngak4G7NMiM-13" value="VPC Endpoints" style="sketch=0;outlineConnect=0;fontColor=#232F3E;gradientColor=none;fillColor=#4D27AA;strokeColor=none;dashed=0;verticalLabelPosition=bottom;verticalAlign=top;align=center;html=1;fontSize=12;fontStyle=0;aspect=fixed;pointerEvents=1;shape=mxgraph.aws4.endpoints;" parent="1" vertex="1">
          <mxGeometry x="640" y="2174" width="78" height="78" as="geometry" />
        </mxCell>
        <mxCell id="u_Y_CnP3Xngak4G7NMiM-14" value="VPC Endpoints" style="sketch=0;outlineConnect=0;fontColor=#232F3E;gradientColor=none;fillColor=#4D27AA;strokeColor=none;dashed=0;verticalLabelPosition=bottom;verticalAlign=top;align=center;html=1;fontSize=12;fontStyle=0;aspect=fixed;pointerEvents=1;shape=mxgraph.aws4.endpoints;" parent="1" vertex="1">
          <mxGeometry x="634" y="2630" width="78" height="78" as="geometry" />
        </mxCell>
        <mxCell id="u_Y_CnP3Xngak4G7NMiM-15" value="NAT gateway" style="sketch=0;outlineConnect=0;fontColor=#232F3E;gradientColor=none;fillColor=#4D27AA;strokeColor=none;dashed=0;verticalLabelPosition=bottom;verticalAlign=top;align=center;html=1;fontSize=12;fontStyle=0;aspect=fixed;pointerEvents=1;shape=mxgraph.aws4.nat_gateway;" parent="1" vertex="1">
          <mxGeometry x="640" y="2294" width="78" height="78" as="geometry" />
        </mxCell>
        <mxCell id="u_Y_CnP3Xngak4G7NMiM-16" style="edgeStyle=orthogonalEdgeStyle;curved=1;rounded=0;orthogonalLoop=1;jettySize=auto;html=1;" parent="1" source="u_Y_CnP3Xngak4G7NMiM-17" target="u_Y_CnP3Xngak4G7NMiM-2" edge="1">
          <mxGeometry relative="1" as="geometry">
            <Array as="points">
              <mxPoint x="740" y="2803" />
              <mxPoint x="740" y="3044" />
            </Array>
          </mxGeometry>
        </mxCell>
        <mxCell id="u_Y_CnP3Xngak4G7NMiM-17" value="NAT gateway" style="sketch=0;outlineConnect=0;fontColor=#232F3E;gradientColor=none;fillColor=#4D27AA;strokeColor=none;dashed=0;verticalLabelPosition=bottom;verticalAlign=top;align=center;html=1;fontSize=12;fontStyle=0;aspect=fixed;pointerEvents=1;shape=mxgraph.aws4.nat_gateway;" parent="1" vertex="1">
          <mxGeometry x="630" y="2764" width="78" height="78" as="geometry" />
        </mxCell>
        <mxCell id="u_Y_CnP3Xngak4G7NMiM-18" value="" style="html=1;endArrow=block;elbow=vertical;startArrow=none;endFill=1;strokeColor=#545B64;rounded=0;entryX=0;entryY=0.5;entryDx=0;entryDy=0;edgeStyle=orthogonalEdgeStyle;curved=1;" parent="1" source="u_Y_CnP3Xngak4G7NMiM-31" target="u_Y_CnP3Xngak4G7NMiM-12" edge="1">
          <mxGeometry width="100" relative="1" as="geometry">
            <mxPoint x="268" y="2508.9999999999995" as="sourcePoint" />
            <mxPoint x="390" y="2293.8999999999996" as="targetPoint" />
          </mxGeometry>
        </mxCell>
        <mxCell id="u_Y_CnP3Xngak4G7NMiM-19" value="" style="edgeStyle=orthogonalEdgeStyle;html=1;endArrow=block;elbow=vertical;startArrow=none;endFill=1;strokeColor=#545B64;rounded=0;curved=1;entryX=0;entryY=0.5;entryDx=0;entryDy=0;" parent="1" source="u_Y_CnP3Xngak4G7NMiM-31" target="u_Y_CnP3Xngak4G7NMiM-8" edge="1">
          <mxGeometry width="100" relative="1" as="geometry">
            <mxPoint x="-580" y="2874" as="sourcePoint" />
            <mxPoint x="-480" y="2794" as="targetPoint" />
          </mxGeometry>
        </mxCell>
        <mxCell id="u_Y_CnP3Xngak4G7NMiM-20" value="" style="edgeStyle=orthogonalEdgeStyle;html=1;endArrow=block;elbow=vertical;startArrow=none;endFill=1;strokeColor=#545B64;rounded=0;curved=1;" parent="1" source="u_Y_CnP3Xngak4G7NMiM-13" target="u_Y_CnP3Xngak4G7NMiM-30" edge="1">
          <mxGeometry width="100" relative="1" as="geometry">
            <mxPoint x="1100" y="2144" as="sourcePoint" />
            <mxPoint x="239" y="1862" as="targetPoint" />
            <Array as="points">
              <mxPoint x="679" y="1974" />
              <mxPoint x="309" y="1974" />
            </Array>
          </mxGeometry>
        </mxCell>
        <mxCell id="u_Y_CnP3Xngak4G7NMiM-21" value="" style="edgeStyle=orthogonalEdgeStyle;html=1;endArrow=block;elbow=vertical;startArrow=none;endFill=1;strokeColor=#545B64;rounded=0;curved=1;" parent="1" source="u_Y_CnP3Xngak4G7NMiM-13" target="u_Y_CnP3Xngak4G7NMiM-34" edge="1">
          <mxGeometry width="100" relative="1" as="geometry">
            <mxPoint x="1190" y="2184" as="sourcePoint" />
            <mxPoint x="1290" y="2184" as="targetPoint" />
            <Array as="points">
              <mxPoint x="679" y="1944" />
              <mxPoint x="470" y="1944" />
            </Array>
          </mxGeometry>
        </mxCell>
        <mxCell id="u_Y_CnP3Xngak4G7NMiM-22" value="" style="edgeStyle=orthogonalEdgeStyle;html=1;endArrow=block;elbow=vertical;startArrow=none;endFill=1;strokeColor=#545B64;rounded=0;curved=1;" parent="1" source="u_Y_CnP3Xngak4G7NMiM-13" target="u_Y_CnP3Xngak4G7NMiM-35" edge="1">
          <mxGeometry width="100" relative="1" as="geometry">
            <mxPoint x="1340" y="2284" as="sourcePoint" />
            <mxPoint x="1440" y="2284" as="targetPoint" />
            <Array as="points">
              <mxPoint x="679" y="1944" />
              <mxPoint x="569" y="1944" />
            </Array>
          </mxGeometry>
        </mxCell>
        <mxCell id="u_Y_CnP3Xngak4G7NMiM-23" value="" style="edgeStyle=orthogonalEdgeStyle;html=1;endArrow=block;elbow=vertical;startArrow=none;endFill=1;strokeColor=#545B64;rounded=0;curved=1;" parent="1" source="u_Y_CnP3Xngak4G7NMiM-13" target="u_Y_CnP3Xngak4G7NMiM-9" edge="1">
          <mxGeometry width="100" relative="1" as="geometry">
            <mxPoint x="1280" y="2424" as="sourcePoint" />
            <mxPoint x="1380" y="2424" as="targetPoint" />
          </mxGeometry>
        </mxCell>
        <mxCell id="u_Y_CnP3Xngak4G7NMiM-24" value="" style="edgeStyle=orthogonalEdgeStyle;html=1;endArrow=block;elbow=vertical;startArrow=none;endFill=1;strokeColor=#545B64;rounded=0;curved=1;" parent="1" source="u_Y_CnP3Xngak4G7NMiM-15" target="u_Y_CnP3Xngak4G7NMiM-2" edge="1">
          <mxGeometry width="100" relative="1" as="geometry">
            <mxPoint x="1130" y="2474" as="sourcePoint" />
            <mxPoint x="1230" y="2474" as="targetPoint" />
            <Array as="points">
              <mxPoint x="790" y="2333" />
              <mxPoint x="790" y="3044" />
            </Array>
          </mxGeometry>
        </mxCell>
        <mxCell id="u_Y_CnP3Xngak4G7NMiM-25" value="Public Ethereum&#xa;Blockchain" style="shape=image;verticalLabelPosition=bottom;labelBackgroundColor=default;verticalAlign=top;aspect=fixed;imageAspect=0;image=https://ethereum.org/static/a62391514b71539906d6bd8ec820c7d8/d1ef9/eth-diamond-glyph.png;" parent="1" vertex="1">
          <mxGeometry x="412.5" y="3274" width="54" height="90" as="geometry" />
        </mxCell>
        <mxCell id="u_Y_CnP3Xngak4G7NMiM-26" style="edgeStyle=orthogonalEdgeStyle;rounded=0;orthogonalLoop=1;jettySize=auto;html=1;exitX=0.5;exitY=1;exitDx=0;exitDy=0;exitPerimeter=0;entryX=0;entryY=0.5;entryDx=0;entryDy=0;" parent="1" source="u_Y_CnP3Xngak4G7NMiM-42" target="u_Y_CnP3Xngak4G7NMiM-25" edge="1">
          <mxGeometry relative="1" as="geometry" />
        </mxCell>
        <mxCell id="u_Y_CnP3Xngak4G7NMiM-27" style="edgeStyle=orthogonalEdgeStyle;shape=link;rounded=0;orthogonalLoop=1;jettySize=auto;html=1;exitX=0.5;exitY=0;exitDx=0;exitDy=0;exitPerimeter=0;" parent="1" source="u_Y_CnP3Xngak4G7NMiM-29" edge="1">
          <mxGeometry relative="1" as="geometry">
            <mxPoint x="495" y="2674" as="targetPoint" />
          </mxGeometry>
        </mxCell>
        <mxCell id="u_Y_CnP3Xngak4G7NMiM-28" value="vsock" style="edgeLabel;html=1;align=center;verticalAlign=middle;resizable=0;points=[];" parent="u_Y_CnP3Xngak4G7NMiM-27" vertex="1" connectable="0">
          <mxGeometry x="-0.35" y="-2" relative="1" as="geometry">
            <mxPoint x="-4" y="8" as="offset" />
          </mxGeometry>
        </mxCell>
        <mxCell id="u_Y_CnP3Xngak4G7NMiM-29" value="Web3Signer&lt;br style=&quot;border-color: var(--border-color);&quot;&gt;in Nitro Enclave" style="sketch=0;points=[[0,0,0],[0.25,0,0],[0.5,0,0],[0.75,0,0],[1,0,0],[0,1,0],[0.25,1,0],[0.5,1,0],[0.75,1,0],[1,1,0],[0,0.25,0],[0,0.5,0],[0,0.75,0],[1,0.25,0],[1,0.5,0],[1,0.75,0]];outlineConnect=0;fontColor=#232F3E;gradientColor=#F78E04;gradientDirection=north;fillColor=#D05C17;strokeColor=#ffffff;dashed=0;verticalLabelPosition=bottom;verticalAlign=top;align=center;html=1;fontSize=12;fontStyle=0;aspect=fixed;shape=mxgraph.aws4.resourceIcon;resIcon=mxgraph.aws4.nitro_enclaves;" parent="1" vertex="1">
          <mxGeometry x="465" y="2754" width="60" height="60" as="geometry" />
        </mxCell>
        <mxCell id="u_Y_CnP3Xngak4G7NMiM-30" value="Amazon DynamoDB" style="sketch=0;points=[[0,0,0],[0.25,0,0],[0.5,0,0],[0.75,0,0],[1,0,0],[0,1,0],[0.25,1,0],[0.5,1,0],[0.75,1,0],[1,1,0],[0,0.25,0],[0,0.5,0],[0,0.75,0],[1,0.25,0],[1,0.5,0],[1,0.75,0]];outlineConnect=0;fontColor=#232F3E;gradientColor=#4D72F3;gradientDirection=north;fillColor=#3334B9;strokeColor=#ffffff;dashed=0;verticalLabelPosition=bottom;verticalAlign=top;align=center;html=1;fontSize=12;fontStyle=0;aspect=fixed;shape=mxgraph.aws4.resourceIcon;resIcon=mxgraph.aws4.dynamodb;" parent="1" vertex="1">
          <mxGeometry x="370" y="1784" width="78" height="78" as="geometry" />
        </mxCell>
        <mxCell id="u_Y_CnP3Xngak4G7NMiM-31" value="Network Load &lt;br&gt;Balancer" style="sketch=0;outlineConnect=0;fontColor=#232F3E;gradientColor=none;fillColor=#4D27AA;strokeColor=none;dashed=0;verticalLabelPosition=bottom;verticalAlign=top;align=center;html=1;fontSize=12;fontStyle=0;aspect=fixed;pointerEvents=1;shape=mxgraph.aws4.network_load_balancer;" parent="1" vertex="1">
          <mxGeometry x="190" y="2477" width="78" height="78" as="geometry" />
        </mxCell>
        <mxCell id="u_Y_CnP3Xngak4G7NMiM-32" style="edgeStyle=orthogonalEdgeStyle;rounded=0;orthogonalLoop=1;jettySize=auto;html=1;" parent="1" source="u_Y_CnP3Xngak4G7NMiM-33" target="u_Y_CnP3Xngak4G7NMiM-31" edge="1">
          <mxGeometry relative="1" as="geometry">
            <mxPoint x="118" y="2513" as="sourcePoint" />
          </mxGeometry>
        </mxCell>
        <mxCell id="u_Y_CnP3Xngak4G7NMiM-33" value="Lambda Checker" style="sketch=0;points=[[0,0,0],[0.25,0,0],[0.5,0,0],[0.75,0,0],[1,0,0],[0,1,0],[0.25,1,0],[0.5,1,0],[0.75,1,0],[1,1,0],[0,0.25,0],[0,0.5,0],[0,0.75,0],[1,0.25,0],[1,0.5,0],[1,0.75,0]];outlineConnect=0;fontColor=#232F3E;gradientColor=#F78E04;gradientDirection=north;fillColor=#D05C17;strokeColor=#ffffff;dashed=0;verticalLabelPosition=bottom;verticalAlign=top;align=center;html=1;fontSize=12;fontStyle=0;aspect=fixed;shape=mxgraph.aws4.resourceIcon;resIcon=mxgraph.aws4.lambda;" parent="1" vertex="1">
          <mxGeometry x="190" y="2274" width="78" height="78" as="geometry" />
        </mxCell>
        <mxCell id="u_Y_CnP3Xngak4G7NMiM-34" value="AWS KMS" style="sketch=0;points=[[0,0,0],[0.25,0,0],[0.5,0,0],[0.75,0,0],[1,0,0],[0,1,0],[0.25,1,0],[0.5,1,0],[0.75,1,0],[1,1,0],[0,0.25,0],[0,0.5,0],[0,0.75,0],[1,0.25,0],[1,0.5,0],[1,0.75,0]];outlineConnect=0;fontColor=#232F3E;gradientColor=#F54749;gradientDirection=north;fillColor=#C7131F;strokeColor=#ffffff;dashed=0;verticalLabelPosition=bottom;verticalAlign=top;align=center;html=1;fontSize=12;fontStyle=0;aspect=fixed;shape=mxgraph.aws4.resourceIcon;resIcon=mxgraph.aws4.key_management_service;" parent="1" vertex="1">
          <mxGeometry x="480" y="1784" width="78" height="78" as="geometry" />
        </mxCell>
        <mxCell id="u_Y_CnP3Xngak4G7NMiM-35" value="Amazon Elastic &lt;br&gt;Container Registry" style="sketch=0;points=[[0,0,0],[0.25,0,0],[0.5,0,0],[0.75,0,0],[1,0,0],[0,1,0],[0.25,1,0],[0.5,1,0],[0.75,1,0],[1,1,0],[0,0.25,0],[0,0.5,0],[0,0.75,0],[1,0.25,0],[1,0.5,0],[1,0.75,0]];outlineConnect=0;fontColor=#232F3E;gradientColor=#F78E04;gradientDirection=north;fillColor=#D05C17;strokeColor=#ffffff;dashed=0;verticalLabelPosition=bottom;verticalAlign=top;align=center;html=1;fontSize=12;fontStyle=0;aspect=fixed;shape=mxgraph.aws4.resourceIcon;resIcon=mxgraph.aws4.ecr;" parent="1" vertex="1">
          <mxGeometry x="600" y="1784" width="78" height="78" as="geometry" />
        </mxCell>
        <mxCell id="u_Y_CnP3Xngak4G7NMiM-36" style="edgeStyle=orthogonalEdgeStyle;rounded=0;orthogonalLoop=1;jettySize=auto;html=1;strokeColor=#006600;fontSize=15;fontColor=#FFFFFF;endArrow=classic;endFill=1;" parent="1" source="u_Y_CnP3Xngak4G7NMiM-38" target="u_Y_CnP3Xngak4G7NMiM-42" edge="1">
          <mxGeometry relative="1" as="geometry" />
        </mxCell>
        <mxCell id="u_Y_CnP3Xngak4G7NMiM-37" style="edgeStyle=orthogonalEdgeStyle;curved=1;rounded=0;orthogonalLoop=1;jettySize=auto;html=1;exitX=1;exitY=0.5;exitDx=0;exitDy=0;exitPerimeter=0;entryX=0.013;entryY=0.487;entryDx=0;entryDy=0;entryPerimeter=0;" parent="1" source="u_Y_CnP3Xngak4G7NMiM-38" target="u_Y_CnP3Xngak4G7NMiM-31" edge="1">
          <mxGeometry relative="1" as="geometry" />
        </mxCell>
        <mxCell id="u_Y_CnP3Xngak4G7NMiM-38" value="Validator Client" style="sketch=0;points=[[0,0,0],[0.25,0,0],[0.5,0,0],[0.75,0,0],[1,0,0],[0,1,0],[0.25,1,0],[0.5,1,0],[0.75,1,0],[1,1,0],[0,0.25,0],[0,0.5,0],[0,0.75,0],[1,0.25,0],[1,0.5,0],[1,0.75,0]];outlineConnect=0;fontColor=#232F3E;gradientColor=#F78E04;gradientDirection=north;fillColor=#D05C17;strokeColor=#ffffff;dashed=0;verticalLabelPosition=bottom;verticalAlign=top;align=center;html=1;fontSize=12;fontStyle=0;aspect=fixed;shape=mxgraph.aws4.resourceIcon;resIcon=mxgraph.aws4.ec2;dashPattern=8 8;strokeWidth=3;" parent="1" vertex="1">
          <mxGeometry x="-20" y="2624" width="78" height="78" as="geometry" />
        </mxCell>
        <mxCell id="u_Y_CnP3Xngak4G7NMiM-39" style="edgeStyle=orthogonalEdgeStyle;rounded=0;orthogonalLoop=1;jettySize=auto;html=1;exitX=0.5;exitY=0;exitDx=0;exitDy=0;exitPerimeter=0;shape=link;" parent="1" source="u_Y_CnP3Xngak4G7NMiM-41" edge="1">
          <mxGeometry relative="1" as="geometry">
            <mxPoint x="494.9899999999998" y="2228" as="targetPoint" />
          </mxGeometry>
        </mxCell>
        <mxCell id="u_Y_CnP3Xngak4G7NMiM-40" value="vsock" style="edgeLabel;html=1;align=center;verticalAlign=middle;resizable=0;points=[];" parent="u_Y_CnP3Xngak4G7NMiM-39" vertex="1" connectable="0">
          <mxGeometry x="-0.2381" relative="1" as="geometry">
            <mxPoint y="14" as="offset" />
          </mxGeometry>
        </mxCell>
        <mxCell id="u_Y_CnP3Xngak4G7NMiM-41" value="Web3Signer&lt;br style=&quot;border-color: var(--border-color);&quot;&gt;in Nitro Enclave" style="sketch=0;points=[[0,0,0],[0.25,0,0],[0.5,0,0],[0.75,0,0],[1,0,0],[0,1,0],[0.25,1,0],[0.5,1,0],[0.75,1,0],[1,1,0],[0,0.25,0],[0,0.5,0],[0,0.75,0],[1,0.25,0],[1,0.5,0],[1,0.75,0]];outlineConnect=0;fontColor=#232F3E;gradientColor=#F78E04;gradientDirection=north;fillColor=#D05C17;strokeColor=#ffffff;dashed=0;verticalLabelPosition=bottom;verticalAlign=top;align=center;html=1;fontSize=12;fontStyle=0;aspect=fixed;shape=mxgraph.aws4.resourceIcon;resIcon=mxgraph.aws4.nitro_enclaves;" parent="1" vertex="1">
          <mxGeometry x="464.99" y="2312" width="60" height="60" as="geometry" />
        </mxCell>
        <mxCell id="u_Y_CnP3Xngak4G7NMiM-42" value="Consensus Layer Client&lt;br&gt;(Beacon Node)" style="sketch=0;points=[[0,0,0],[0.25,0,0],[0.5,0,0],[0.75,0,0],[1,0,0],[0,1,0],[0.25,1,0],[0.5,1,0],[0.75,1,0],[1,1,0],[0,0.25,0],[0,0.5,0],[0,0.75,0],[1,0.25,0],[1,0.5,0],[1,0.75,0]];outlineConnect=0;fontColor=#232F3E;gradientColor=#F78E04;gradientDirection=north;fillColor=#D05C17;strokeColor=#ffffff;dashed=0;verticalLabelPosition=bottom;verticalAlign=top;align=center;html=1;fontSize=12;fontStyle=0;aspect=fixed;shape=mxgraph.aws4.resourceIcon;resIcon=mxgraph.aws4.ec2;dashPattern=8 8;strokeWidth=3;" parent="1" vertex="1">
          <mxGeometry x="-20" y="3005" width="78" height="78" as="geometry" />
        </mxCell>
        <mxCell id="u_Y_CnP3Xngak4G7NMiM-43" style="edgeStyle=orthogonalEdgeStyle;rounded=0;orthogonalLoop=1;jettySize=auto;html=1;" parent="1" target="u_Y_CnP3Xngak4G7NMiM-13" edge="1">
          <mxGeometry relative="1" as="geometry">
            <mxPoint x="513.29" y="2213" as="sourcePoint" />
          </mxGeometry>
        </mxCell>
        <mxCell id="u_Y_CnP3Xngak4G7NMiM-44" value="http server" style="sketch=0;points=[[0,0,0],[0.25,0,0],[0.5,0,0],[0.75,0,0],[1,0,0],[0,1,0],[0.25,1,0],[0.5,1,0],[0.75,1,0],[1,1,0],[0,0.25,0],[0,0.5,0],[0,0.75,0],[1,0.25,0],[1,0.5,0],[1,0.75,0]];outlineConnect=0;fontColor=#232F3E;gradientColor=#F78E04;gradientDirection=north;fillColor=#D05C17;strokeColor=#ffffff;dashed=0;verticalLabelPosition=bottom;verticalAlign=top;align=center;html=1;fontSize=12;fontStyle=0;aspect=fixed;shape=mxgraph.aws4.resourceIcon;resIcon=mxgraph.aws4.compute;" parent="1" vertex="1">
          <mxGeometry x="469.99" y="2188" width="50" height="50" as="geometry" />
        </mxCell>
        <mxCell id="u_Y_CnP3Xngak4G7NMiM-45" style="edgeStyle=orthogonalEdgeStyle;rounded=0;orthogonalLoop=1;jettySize=auto;html=1;exitX=1;exitY=0.5;exitDx=0;exitDy=0;exitPerimeter=0;" parent="1" source="u_Y_CnP3Xngak4G7NMiM-46" target="u_Y_CnP3Xngak4G7NMiM-14" edge="1">
          <mxGeometry relative="1" as="geometry" />
        </mxCell>
        <mxCell id="u_Y_CnP3Xngak4G7NMiM-46" value="http server" style="sketch=0;points=[[0,0,0],[0.25,0,0],[0.5,0,0],[0.75,0,0],[1,0,0],[0,1,0],[0.25,1,0],[0.5,1,0],[0.75,1,0],[1,1,0],[0,0.25,0],[0,0.5,0],[0,0.75,0],[1,0.25,0],[1,0.5,0],[1,0.75,0]];outlineConnect=0;fontColor=#232F3E;gradientColor=#F78E04;gradientDirection=north;fillColor=#D05C17;strokeColor=#ffffff;dashed=0;verticalLabelPosition=bottom;verticalAlign=top;align=center;html=1;fontSize=12;fontStyle=0;aspect=fixed;shape=mxgraph.aws4.resourceIcon;resIcon=mxgraph.aws4.compute;" parent="1" vertex="1">
          <mxGeometry x="470" y="2644" width="50" height="50" as="geometry" />
        </mxCell>
        <mxCell id="u_Y_CnP3Xngak4G7NMiM-47" style="edgeStyle=orthogonalEdgeStyle;curved=1;rounded=0;orthogonalLoop=1;jettySize=auto;html=1;exitX=0.5;exitY=1;exitDx=0;exitDy=0;" parent="1" source="u_Y_CnP3Xngak4G7NMiM-11" target="u_Y_CnP3Xngak4G7NMiM-11" edge="1">
          <mxGeometry relative="1" as="geometry" />
        </mxCell>
        <mxCell id="u_Y_CnP3Xngak4G7NMiM-48" value="Availability Zone" style="fillColor=none;strokeColor=#147EBA;dashed=1;verticalAlign=top;fontStyle=0;fontColor=#147EBA;" parent="1" vertex="1">
          <mxGeometry x="-70" y="2124" width="925" height="330" as="geometry" />
        </mxCell>
      </root>
    </mxGraphModel>
  </diagram>
  <diagram id="iwrg0W3aLm8twjt7xqIS" name="Page-2">
    <mxGraphModel dx="2100" dy="720" grid="1" gridSize="10" guides="1" tooltips="1" connect="1" arrows="1" fold="1" page="1" pageScale="1" pageWidth="827" pageHeight="1169" math="0" shadow="0">
      <root>
        <mxCell id="0" />
        <mxCell id="1" parent="0" />
        <mxCell id="1DJy_vMYRfFAtN9hPfsu-1" value="EC2 instance contents" style="points=[[0,0],[0.25,0],[0.5,0],[0.75,0],[1,0],[1,0.25],[1,0.5],[1,0.75],[1,1],[0.75,1],[0.5,1],[0.25,1],[0,1],[0,0.75],[0,0.5],[0,0.25]];outlineConnect=0;gradientColor=none;html=1;whiteSpace=wrap;fontSize=12;fontStyle=0;container=1;pointerEvents=0;collapsible=0;recursiveResize=0;shape=mxgraph.aws4.group;grIcon=mxgraph.aws4.group_ec2_instance_contents;strokeColor=#D86613;fillColor=none;verticalAlign=top;align=left;spacingLeft=30;fontColor=#D86613;dashed=0;" parent="1" vertex="1">
          <mxGeometry x="100" y="190" width="470" height="320" as="geometry" />
        </mxCell>
        <mxCell id="2kvErX47jtJnirpf_Pnx-3" value="" style="group" parent="1DJy_vMYRfFAtN9hPfsu-1" vertex="1" connectable="0">
          <mxGeometry x="180" y="40" width="300" height="260" as="geometry" />
        </mxCell>
        <mxCell id="2kvErX47jtJnirpf_Pnx-2" value="" style="rounded=0;whiteSpace=wrap;html=1;fontSize=12;fillColor=none;strokeColor=#d86614;strokeWidth=1;" parent="2kvErX47jtJnirpf_Pnx-3" vertex="1">
          <mxGeometry width="270" height="260" as="geometry" />
        </mxCell>
        <mxCell id="2kvErX47jtJnirpf_Pnx-1" value="Nitro Enclave Content" style="sketch=0;points=[[0,0,0],[0.25,0,0],[0.5,0,0],[0.75,0,0],[1,0,0],[0,1,0],[0.25,1,0],[0.5,1,0],[0.75,1,0],[1,1,0],[0,0.25,0],[0,0.5,0],[0,0.75,0],[1,0.25,0],[1,0.5,0],[1,0.75,0]];outlineConnect=0;fontColor=#232F3E;gradientColor=#F78E04;gradientDirection=north;fillColor=#D05C17;strokeColor=#ffffff;dashed=0;verticalLabelPosition=middle;verticalAlign=middle;align=left;html=1;fontSize=12;fontStyle=0;aspect=fixed;shape=mxgraph.aws4.resourceIcon;resIcon=mxgraph.aws4.nitro_enclaves;labelPosition=right;" parent="2kvErX47jtJnirpf_Pnx-3" vertex="1">
          <mxGeometry width="30" height="30" as="geometry" />
        </mxCell>
        <mxCell id="2kvErX47jtJnirpf_Pnx-12" value="kmstool-enclave-cli" style="sketch=0;outlineConnect=0;fontColor=#232F3E;gradientColor=none;fillColor=#D45B07;strokeColor=none;dashed=0;verticalLabelPosition=bottom;verticalAlign=top;align=center;html=1;fontSize=12;fontStyle=0;aspect=fixed;pointerEvents=1;shape=mxgraph.aws4.instance2;strokeWidth=1;" parent="2kvErX47jtJnirpf_Pnx-3" vertex="1">
          <mxGeometry x="60" y="162" width="48" height="48" as="geometry" />
        </mxCell>
        <mxCell id="dHmXjoArvW2gVniUvrX1-13" style="edgeStyle=orthogonalEdgeStyle;rounded=0;orthogonalLoop=1;jettySize=auto;html=1;entryX=0;entryY=0.5;entryDx=0;entryDy=0;entryPerimeter=0;fontSize=12;endArrow=classic;endFill=1;" parent="2kvErX47jtJnirpf_Pnx-3" source="2kvErX47jtJnirpf_Pnx-13" target="dHmXjoArvW2gVniUvrX1-7" edge="1">
          <mxGeometry relative="1" as="geometry" />
        </mxCell>
        <mxCell id="2kvErX47jtJnirpf_Pnx-13" value="web3signer" style="sketch=0;outlineConnect=0;fontColor=#232F3E;gradientColor=none;fillColor=#D45B07;strokeColor=none;dashed=0;verticalLabelPosition=bottom;verticalAlign=top;align=center;html=1;fontSize=12;fontStyle=0;aspect=fixed;pointerEvents=1;shape=mxgraph.aws4.instance2;strokeWidth=1;" parent="2kvErX47jtJnirpf_Pnx-3" vertex="1">
          <mxGeometry x="60" y="29" width="48" height="48" as="geometry" />
        </mxCell>
        <mxCell id="dHmXjoArvW2gVniUvrX1-14" style="edgeStyle=orthogonalEdgeStyle;rounded=0;orthogonalLoop=1;jettySize=auto;html=1;fontSize=15;endArrow=classic;endFill=1;strokeColor=#006600;" parent="2kvErX47jtJnirpf_Pnx-3" source="2kvErX47jtJnirpf_Pnx-14" target="2kvErX47jtJnirpf_Pnx-12" edge="1">
          <mxGeometry relative="1" as="geometry" />
        </mxCell>
        <mxCell id="dHmXjoArvW2gVniUvrX1-17" style="edgeStyle=orthogonalEdgeStyle;rounded=0;orthogonalLoop=1;jettySize=auto;html=1;entryX=1;entryY=0.5;entryDx=0;entryDy=0;entryPerimeter=0;strokeColor=#006600;fontSize=15;fontColor=#FFFFFF;endArrow=classic;endFill=1;" parent="2kvErX47jtJnirpf_Pnx-3" source="2kvErX47jtJnirpf_Pnx-14" target="dHmXjoArvW2gVniUvrX1-7" edge="1">
          <mxGeometry relative="1" as="geometry">
            <Array as="points">
              <mxPoint x="260" y="190" />
              <mxPoint x="260" y="52" />
            </Array>
          </mxGeometry>
        </mxCell>
        <mxCell id="2kvErX47jtJnirpf_Pnx-14" value="enclave_init" style="sketch=0;outlineConnect=0;fontColor=#232F3E;gradientColor=none;fillColor=#D45B07;strokeColor=none;dashed=0;verticalLabelPosition=bottom;verticalAlign=top;align=center;html=1;fontSize=12;fontStyle=0;aspect=fixed;pointerEvents=1;shape=mxgraph.aws4.instance2;strokeWidth=1;" parent="2kvErX47jtJnirpf_Pnx-3" vertex="1">
          <mxGeometry x="170" y="162" width="48" height="48" as="geometry" />
        </mxCell>
        <mxCell id="dHmXjoArvW2gVniUvrX1-9" value="" style="group" parent="2kvErX47jtJnirpf_Pnx-3" vertex="1" connectable="0">
          <mxGeometry x="170" y="22.380000000000003" width="70" height="60" as="geometry" />
        </mxCell>
        <mxCell id="dHmXjoArvW2gVniUvrX1-10" value="" style="group" parent="dHmXjoArvW2gVniUvrX1-9" vertex="1" connectable="0">
          <mxGeometry width="70" height="60" as="geometry" />
        </mxCell>
        <mxCell id="dHmXjoArvW2gVniUvrX1-7" value="Private keys in filesystem" style="whiteSpace=wrap;html=1;shape=mxgraph.basic.document;strokeColor=#000000;strokeWidth=1;fontSize=12;fillColor=none;labelPosition=center;verticalLabelPosition=bottom;align=center;verticalAlign=top;" parent="dHmXjoArvW2gVniUvrX1-10" vertex="1">
          <mxGeometry width="70" height="60" as="geometry" />
        </mxCell>
        <mxCell id="dHmXjoArvW2gVniUvrX1-8" value="" style="points=[[0,0.5,0],[0.24,0,0],[0.5,0.28,0],[0.995,0.475,0],[0.5,0.72,0],[0.24,1,0]];verticalLabelPosition=bottom;sketch=0;html=1;verticalAlign=top;aspect=fixed;align=center;pointerEvents=1;shape=mxgraph.cisco19.key;fillColor=#005073;strokeColor=none;strokeWidth=1;fontSize=12;" parent="dHmXjoArvW2gVniUvrX1-10" vertex="1">
          <mxGeometry x="10" y="23" width="50" height="22.5" as="geometry" />
        </mxCell>
        <mxCell id="dHmXjoArvW2gVniUvrX1-19" value="3" style="ellipse;whiteSpace=wrap;html=1;fillColor=#000000;fontStyle=1;fontSize=15;fontColor=#FFFFFF;" parent="2kvErX47jtJnirpf_Pnx-3" vertex="1">
          <mxGeometry x="134" y="188.5" width="21.5" height="21.5" as="geometry" />
        </mxCell>
        <mxCell id="dHmXjoArvW2gVniUvrX1-21" value="5" style="ellipse;whiteSpace=wrap;html=1;fillColor=#000000;fontStyle=1;fontSize=15;fontColor=#FFFFFF;" parent="2kvErX47jtJnirpf_Pnx-3" vertex="1">
          <mxGeometry x="230" y="150" width="21.5" height="21.5" as="geometry" />
        </mxCell>
        <mxCell id="dHmXjoArvW2gVniUvrX1-24" value="6" style="ellipse;whiteSpace=wrap;html=1;fillColor=#000000;fontStyle=1;fontSize=15;fontColor=#FFFFFF;" parent="2kvErX47jtJnirpf_Pnx-3" vertex="1">
          <mxGeometry x="124.25" y="30" width="21.5" height="21.5" as="geometry" />
        </mxCell>
        <mxCell id="2kvErX47jtJnirpf_Pnx-37" style="edgeStyle=orthogonalEdgeStyle;rounded=0;orthogonalLoop=1;jettySize=auto;html=1;exitX=0.145;exitY=0;exitDx=0;exitDy=4.35;exitPerimeter=0;fontSize=12;endArrow=classic;endFill=1;" parent="1DJy_vMYRfFAtN9hPfsu-1" source="2kvErX47jtJnirpf_Pnx-4" target="2kvErX47jtJnirpf_Pnx-13" edge="1">
          <mxGeometry relative="1" as="geometry">
            <Array as="points">
              <mxPoint x="220" y="158" />
              <mxPoint x="220" y="93" />
            </Array>
          </mxGeometry>
        </mxCell>
        <mxCell id="dHmXjoArvW2gVniUvrX1-4" style="edgeStyle=orthogonalEdgeStyle;rounded=0;orthogonalLoop=1;jettySize=auto;html=1;exitX=0.855;exitY=0;exitDx=0;exitDy=4.35;exitPerimeter=0;fontSize=12;endArrow=classic;endFill=1;strokeColor=#000000;" parent="1DJy_vMYRfFAtN9hPfsu-1" source="2kvErX47jtJnirpf_Pnx-4" target="2kvErX47jtJnirpf_Pnx-14" edge="1">
          <mxGeometry relative="1" as="geometry" />
        </mxCell>
        <mxCell id="2kvErX47jtJnirpf_Pnx-4" value="" style="shape=cylinder3;whiteSpace=wrap;html=1;boundedLbl=1;backgroundOutline=1;size=15;strokeColor=#000000;strokeWidth=1;fontSize=12;fillColor=#808080;rotation=90;labelPosition=center;verticalLabelPosition=bottom;align=center;verticalAlign=top;textDirection=ltr;" parent="1DJy_vMYRfFAtN9hPfsu-1" vertex="1">
          <mxGeometry x="125.63" y="114.38" width="35" height="111.25" as="geometry" />
        </mxCell>
        <mxCell id="2kvErX47jtJnirpf_Pnx-6" value="vsock" style="text;html=1;strokeColor=none;fillColor=none;align=center;verticalAlign=middle;whiteSpace=wrap;rounded=0;fontSize=12;" parent="1DJy_vMYRfFAtN9hPfsu-1" vertex="1">
          <mxGeometry x="110" y="180" width="60" height="30" as="geometry" />
        </mxCell>
        <mxCell id="2kvErX47jtJnirpf_Pnx-40" style="edgeStyle=orthogonalEdgeStyle;rounded=0;orthogonalLoop=1;jettySize=auto;html=1;entryX=0.855;entryY=1;entryDx=0;entryDy=-4.35;entryPerimeter=0;fontSize=12;endArrow=none;endFill=0;strokeColor=#000000;" parent="1DJy_vMYRfFAtN9hPfsu-1" source="2kvErX47jtJnirpf_Pnx-8" target="2kvErX47jtJnirpf_Pnx-4" edge="1">
          <mxGeometry relative="1" as="geometry">
            <Array as="points">
              <mxPoint x="70" y="250" />
              <mxPoint x="70" y="182" />
            </Array>
          </mxGeometry>
        </mxCell>
        <mxCell id="2kvErX47jtJnirpf_Pnx-8" value="watchdog&lt;br&gt;(systemd)" style="sketch=0;outlineConnect=0;fontColor=#232F3E;gradientColor=none;fillColor=#D45B07;strokeColor=none;dashed=0;verticalLabelPosition=bottom;verticalAlign=top;align=center;html=1;fontSize=12;fontStyle=0;aspect=fixed;pointerEvents=1;shape=mxgraph.aws4.instance2;strokeWidth=1;" parent="1DJy_vMYRfFAtN9hPfsu-1" vertex="1">
          <mxGeometry x="112.63" y="225.63" width="48" height="48" as="geometry" />
        </mxCell>
        <mxCell id="dHmXjoArvW2gVniUvrX1-5" style="edgeStyle=orthogonalEdgeStyle;rounded=0;orthogonalLoop=1;jettySize=auto;html=1;entryX=0.5;entryY=0;entryDx=0;entryDy=0;entryPerimeter=0;fontSize=12;endArrow=none;endFill=0;strokeColor=#006600;" parent="1DJy_vMYRfFAtN9hPfsu-1" source="2kvErX47jtJnirpf_Pnx-12" target="2kvErX47jtJnirpf_Pnx-4" edge="1">
          <mxGeometry relative="1" as="geometry">
            <Array as="points">
              <mxPoint x="270" y="170" />
            </Array>
          </mxGeometry>
        </mxCell>
        <mxCell id="dHmXjoArvW2gVniUvrX1-18" value="2" style="ellipse;whiteSpace=wrap;html=1;fillColor=#000000;fontStyle=1;fontSize=15;fontColor=#FFFFFF;" parent="1DJy_vMYRfFAtN9hPfsu-1" vertex="1">
          <mxGeometry x="80" y="188.5" width="21.5" height="21.5" as="geometry" />
        </mxCell>
        <mxCell id="dHmXjoArvW2gVniUvrX1-20" value="4" style="ellipse;whiteSpace=wrap;html=1;fillColor=#000000;fontStyle=1;fontSize=15;fontColor=#FFFFFF;" parent="1DJy_vMYRfFAtN9hPfsu-1" vertex="1">
          <mxGeometry x="10" y="200" width="21.5" height="21.5" as="geometry" />
        </mxCell>
        <mxCell id="dHmXjoArvW2gVniUvrX1-23" value="8" style="ellipse;whiteSpace=wrap;html=1;fillColor=#000000;fontStyle=1;fontSize=15;fontColor=#FFFFFF;" parent="1DJy_vMYRfFAtN9hPfsu-1" vertex="1">
          <mxGeometry x="60" y="130" width="21.5" height="21.5" as="geometry" />
        </mxCell>
        <mxCell id="OQYRMb6yUm-RiQAMyewO-3" style="edgeStyle=orthogonalEdgeStyle;rounded=0;orthogonalLoop=1;jettySize=auto;html=1;entryX=0.145;entryY=1;entryDx=0;entryDy=-4.35;entryPerimeter=0;fontSize=12;endArrow=none;endFill=0;" parent="1" source="ru_0Yhqxii5_2bYYCFdM-1" target="2kvErX47jtJnirpf_Pnx-4" edge="1">
          <mxGeometry relative="1" as="geometry">
            <Array as="points">
              <mxPoint x="149" y="348" />
            </Array>
          </mxGeometry>
        </mxCell>
        <mxCell id="ru_0Yhqxii5_2bYYCFdM-1" value="http_server" style="sketch=0;aspect=fixed;html=1;points=[];align=center;image;fontSize=12;image=img/lib/mscae/Docker.svg;" parent="1" vertex="1">
          <mxGeometry x="125" y="240" width="48.79" height="40" as="geometry" />
        </mxCell>
        <mxCell id="2kvErX47jtJnirpf_Pnx-11" value="DynamoDB&lt;br style=&quot;border-color: var(--border-color);&quot;&gt;(Validator keys)" style="sketch=0;points=[[0,0,0],[0.25,0,0],[0.5,0,0],[0.75,0,0],[1,0,0],[0,1,0],[0.25,1,0],[0.5,1,0],[0.75,1,0],[1,1,0],[0,0.25,0],[0,0.5,0],[0,0.75,0],[1,0.25,0],[1,0.5,0],[1,0.75,0]];outlineConnect=0;fontColor=#232F3E;gradientColor=#4D72F3;gradientDirection=north;fillColor=#3334B9;strokeColor=#ffffff;dashed=0;verticalLabelPosition=bottom;verticalAlign=top;align=center;html=1;fontSize=12;fontStyle=0;aspect=fixed;shape=mxgraph.aws4.resourceIcon;resIcon=mxgraph.aws4.dynamodb;strokeWidth=1;" parent="1" vertex="1">
          <mxGeometry x="210.13" y="627.3" width="53" height="53" as="geometry" />
        </mxCell>
        <mxCell id="OQYRMb6yUm-RiQAMyewO-4" style="edgeStyle=orthogonalEdgeStyle;rounded=0;orthogonalLoop=1;jettySize=auto;html=1;fontSize=12;endArrow=classic;endFill=1;strokeColor=#000000;" parent="1" source="2kvErX47jtJnirpf_Pnx-7" target="OQYRMb6yUm-RiQAMyewO-1" edge="1">
          <mxGeometry relative="1" as="geometry">
            <mxPoint x="170" y="540" as="sourcePoint" />
            <Array as="points">
              <mxPoint x="144" y="584" />
            </Array>
          </mxGeometry>
        </mxCell>
        <mxCell id="2kvErX47jtJnirpf_Pnx-7" value="vsock-proxy&lt;br&gt;(systemd)" style="sketch=0;outlineConnect=0;fontColor=#232F3E;gradientColor=none;fillColor=#D45B07;strokeColor=none;dashed=0;verticalLabelPosition=bottom;verticalAlign=top;align=center;html=1;fontSize=12;fontStyle=0;aspect=fixed;pointerEvents=1;shape=mxgraph.aws4.instance2;strokeWidth=1;" parent="1" vertex="1">
          <mxGeometry x="119.59" y="415.63" width="48" height="48" as="geometry" />
        </mxCell>
        <mxCell id="2kvErX47jtJnirpf_Pnx-43" style="edgeStyle=orthogonalEdgeStyle;rounded=0;orthogonalLoop=1;jettySize=auto;html=1;exitX=0.5;exitY=1;exitDx=0;exitDy=0;exitPerimeter=0;fontSize=12;endArrow=classic;endFill=1;strokeColor=#000000;" parent="1" source="2kvErX47jtJnirpf_Pnx-4" target="2kvErX47jtJnirpf_Pnx-7" edge="1">
          <mxGeometry relative="1" as="geometry" />
        </mxCell>
        <mxCell id="OQYRMb6yUm-RiQAMyewO-1" value="AWS KMS" style="sketch=0;points=[[0,0,0],[0.25,0,0],[0.5,0,0],[0.75,0,0],[1,0,0],[0,1,0],[0.25,1,0],[0.5,1,0],[0.75,1,0],[1,1,0],[0,0.25,0],[0,0.5,0],[0,0.75,0],[1,0.25,0],[1,0.5,0],[1,0.75,0]];outlineConnect=0;fontColor=#232F3E;gradientColor=#F54749;gradientDirection=north;fillColor=#C7131F;strokeColor=#ffffff;dashed=0;verticalLabelPosition=bottom;verticalAlign=top;align=center;html=1;fontSize=12;fontStyle=0;aspect=fixed;shape=mxgraph.aws4.resourceIcon;resIcon=mxgraph.aws4.key_management_service;" parent="1" vertex="1">
          <mxGeometry x="-19.999999999999996" y="557" width="53" height="53" as="geometry" />
        </mxCell>
        <mxCell id="OQYRMb6yUm-RiQAMyewO-2" style="edgeStyle=orthogonalEdgeStyle;rounded=0;orthogonalLoop=1;jettySize=auto;html=1;fontSize=12;endArrow=classic;endFill=1;strokeColor=#000000;" parent="1" source="2kvErX47jtJnirpf_Pnx-8" target="2kvErX47jtJnirpf_Pnx-11" edge="1">
          <mxGeometry relative="1" as="geometry">
            <mxPoint x="237" y="500" as="sourcePoint" />
          </mxGeometry>
        </mxCell>
        <mxCell id="OQYRMb6yUm-RiQAMyewO-6" value="Attestation document" style="shadow=0;dashed=0;html=1;strokeColor=none;fillColor=#4495D1;labelPosition=center;verticalLabelPosition=bottom;verticalAlign=top;align=center;outlineConnect=0;shape=mxgraph.veeam.checked_doc;strokeWidth=1;fontSize=12;" parent="1" vertex="1">
          <mxGeometry x="68.79" y="570" width="50.8" height="61.6" as="geometry" />
        </mxCell>
        <mxCell id="dHmXjoArvW2gVniUvrX1-2" style="edgeStyle=orthogonalEdgeStyle;rounded=0;orthogonalLoop=1;jettySize=auto;html=1;fontSize=12;endArrow=classic;endFill=1;" parent="1" source="dHmXjoArvW2gVniUvrX1-1" target="ru_0Yhqxii5_2bYYCFdM-1" edge="1">
          <mxGeometry relative="1" as="geometry" />
        </mxCell>
        <mxCell id="dHmXjoArvW2gVniUvrX1-1" value="Validator Client" style="sketch=0;points=[[0,0,0],[0.25,0,0],[0.5,0,0],[0.75,0,0],[1,0,0],[0,1,0],[0.25,1,0],[0.5,1,0],[0.75,1,0],[1,1,0],[0,0.25,0],[0,0.5,0],[0,0.75,0],[1,0.25,0],[1,0.5,0],[1,0.75,0]];outlineConnect=0;fontColor=#232F3E;gradientColor=#F78E04;gradientDirection=north;fillColor=#D05C17;strokeColor=#ffffff;dashed=0;verticalLabelPosition=bottom;verticalAlign=top;align=center;html=1;fontSize=12;fontStyle=0;aspect=fixed;shape=mxgraph.aws4.resourceIcon;resIcon=mxgraph.aws4.ec2;dashPattern=8 8;strokeWidth=3;" parent="1" vertex="1">
          <mxGeometry x="-50" y="231" width="58" height="58" as="geometry" />
        </mxCell>
        <mxCell id="dHmXjoArvW2gVniUvrX1-12" value="1" style="ellipse;whiteSpace=wrap;html=1;fillColor=#000000;fontStyle=1;fontSize=15;fontColor=#FFFFFF;" parent="1" vertex="1">
          <mxGeometry x="210.13" y="535.5" width="21.5" height="21.5" as="geometry" />
        </mxCell>
        <mxCell id="dHmXjoArvW2gVniUvrX1-22" value="7" style="ellipse;whiteSpace=wrap;html=1;fillColor=#000000;fontStyle=1;fontSize=15;fontColor=#FFFFFF;" parent="1" vertex="1">
          <mxGeometry x="33" y="231" width="21.5" height="21.5" as="geometry" />
        </mxCell>
        <mxCell id="IcaZoQQhl9hWO7btVg-S-1" value="&lt;b&gt;Validator Keys stored:&lt;br&gt;&lt;/b&gt;&lt;i&gt;0xa957cf9&lt;/i&gt; &amp;amp; encrypted private key&lt;br&gt;&lt;i&gt;0xb821c31&lt;/i&gt;&amp;amp; encrypted private key&lt;br&gt;&lt;i&gt;0x8f1942c&lt;/i&gt; &amp;amp; encrypted private key&lt;br&gt;&lt;i&gt;0x89a263f&lt;/i&gt; &amp;amp; encrypted private key&lt;br&gt;&lt;i&gt;0x78b13f5&lt;/i&gt; &amp;amp; encrypted private key" style="whiteSpace=wrap;html=1;align=left;" vertex="1" parent="1">
          <mxGeometry x="250" y="550" width="200" height="90" as="geometry" />
        </mxCell>
        <mxCell id="IcaZoQQhl9hWO7btVg-S-2" value="DynamoDB&lt;br style=&quot;border-color: var(--border-color);&quot;&gt;(TLS keys)" style="sketch=0;points=[[0,0,0],[0.25,0,0],[0.5,0,0],[0.75,0,0],[1,0,0],[0,1,0],[0.25,1,0],[0.5,1,0],[0.75,1,0],[1,1,0],[0,0.25,0],[0,0.5,0],[0,0.75,0],[1,0.25,0],[1,0.5,0],[1,0.75,0]];outlineConnect=0;fontColor=#232F3E;gradientColor=#4D72F3;gradientDirection=north;fillColor=#3334B9;strokeColor=#ffffff;dashed=0;verticalLabelPosition=bottom;verticalAlign=top;align=center;html=1;fontSize=12;fontStyle=0;aspect=fixed;shape=mxgraph.aws4.resourceIcon;resIcon=mxgraph.aws4.dynamodb;strokeWidth=1;" vertex="1" parent="1">
          <mxGeometry x="490" y="620" width="53" height="53" as="geometry" />
        </mxCell>
        <mxCell id="IcaZoQQhl9hWO7btVg-S-5" style="edgeStyle=orthogonalEdgeStyle;rounded=0;orthogonalLoop=1;jettySize=auto;html=1;fontSize=12;endArrow=classic;endFill=1;strokeColor=#000000;entryX=0.5;entryY=0;entryDx=0;entryDy=0;entryPerimeter=0;" edge="1" parent="1" source="2kvErX47jtJnirpf_Pnx-8" target="IcaZoQQhl9hWO7btVg-S-2">
          <mxGeometry relative="1" as="geometry">
            <mxPoint x="304.4050000000002" y="382.4300000000003" as="sourcePoint" />
            <mxPoint x="484" y="402" as="targetPoint" />
            <Array as="points">
              <mxPoint x="237" y="540" />
              <mxPoint x="517" y="540" />
            </Array>
          </mxGeometry>
        </mxCell>
        <mxCell id="IcaZoQQhl9hWO7btVg-S-6" value="TLS public cert + encrypted TLS private key" style="whiteSpace=wrap;html=1;align=left;" vertex="1" parent="1">
          <mxGeometry x="530" y="567.3" width="150" height="60" as="geometry" />
        </mxCell>
      </root>
    </mxGraphModel>
  </diagram>
  <diagram name="Page-3" id="Lycjj8nikl7tPtDKMiE_">
    <mxGraphModel dx="1273" dy="720" grid="1" gridSize="10" guides="1" tooltips="1" connect="1" arrows="1" fold="1" page="1" pageScale="1" pageWidth="827" pageHeight="1169" math="0" shadow="0">
      <root>
        <mxCell id="AiXYY7BvG-ptJ4Pdi_vA-0" />
        <mxCell id="AiXYY7BvG-ptJ4Pdi_vA-1" parent="AiXYY7BvG-ptJ4Pdi_vA-0" />
        <mxCell id="U5IXbuqL92R9YRNmgBX2-1" style="edgeStyle=orthogonalEdgeStyle;rounded=0;orthogonalLoop=1;jettySize=auto;html=1;exitX=1;exitY=0.5;exitDx=0;exitDy=0;exitPerimeter=0;" edge="1" parent="AiXYY7BvG-ptJ4Pdi_vA-1" source="E55B9FonHlSUmXe2qa0Z-0" target="U5IXbuqL92R9YRNmgBX2-0">
          <mxGeometry relative="1" as="geometry">
            <Array as="points">
              <mxPoint x="230" y="334" />
              <mxPoint x="230" y="434" />
            </Array>
          </mxGeometry>
        </mxCell>
        <mxCell id="E55B9FonHlSUmXe2qa0Z-0" value="Validator Client 1" style="sketch=0;points=[[0,0,0],[0.25,0,0],[0.5,0,0],[0.75,0,0],[1,0,0],[0,1,0],[0.25,1,0],[0.5,1,0],[0.75,1,0],[1,1,0],[0,0.25,0],[0,0.5,0],[0,0.75,0],[1,0.25,0],[1,0.5,0],[1,0.75,0]];outlineConnect=0;fontColor=#232F3E;gradientColor=#F78E04;gradientDirection=north;fillColor=#D05C17;strokeColor=#ffffff;dashed=0;verticalLabelPosition=bottom;verticalAlign=top;align=center;html=1;fontSize=12;fontStyle=0;aspect=fixed;shape=mxgraph.aws4.resourceIcon;resIcon=mxgraph.aws4.ec2;" vertex="1" parent="AiXYY7BvG-ptJ4Pdi_vA-1">
          <mxGeometry x="160" y="310" width="48" height="48" as="geometry" />
        </mxCell>
        <mxCell id="U5IXbuqL92R9YRNmgBX2-2" style="edgeStyle=orthogonalEdgeStyle;rounded=0;orthogonalLoop=1;jettySize=auto;html=1;exitX=1;exitY=0.5;exitDx=0;exitDy=0;exitPerimeter=0;" edge="1" parent="AiXYY7BvG-ptJ4Pdi_vA-1" source="E55B9FonHlSUmXe2qa0Z-1" target="U5IXbuqL92R9YRNmgBX2-0">
          <mxGeometry relative="1" as="geometry">
            <Array as="points">
              <mxPoint x="300" y="434" />
              <mxPoint x="300" y="434" />
            </Array>
          </mxGeometry>
        </mxCell>
        <mxCell id="E55B9FonHlSUmXe2qa0Z-1" value="Validator Client 2" style="sketch=0;points=[[0,0,0],[0.25,0,0],[0.5,0,0],[0.75,0,0],[1,0,0],[0,1,0],[0.25,1,0],[0.5,1,0],[0.75,1,0],[1,1,0],[0,0.25,0],[0,0.5,0],[0,0.75,0],[1,0.25,0],[1,0.5,0],[1,0.75,0]];outlineConnect=0;fontColor=#232F3E;gradientColor=#F78E04;gradientDirection=north;fillColor=#D05C17;strokeColor=#ffffff;dashed=0;verticalLabelPosition=bottom;verticalAlign=top;align=center;html=1;fontSize=12;fontStyle=0;aspect=fixed;shape=mxgraph.aws4.resourceIcon;resIcon=mxgraph.aws4.ec2;" vertex="1" parent="AiXYY7BvG-ptJ4Pdi_vA-1">
          <mxGeometry x="160" y="410" width="48" height="48" as="geometry" />
        </mxCell>
        <mxCell id="fMYGTP9QaO-dXHhESoqc-0" style="edgeStyle=orthogonalEdgeStyle;rounded=0;orthogonalLoop=1;jettySize=auto;html=1;entryX=0;entryY=0.5;entryDx=0;entryDy=0;" edge="1" parent="AiXYY7BvG-ptJ4Pdi_vA-1" source="U5IXbuqL92R9YRNmgBX2-0" target="U5IXbuqL92R9YRNmgBX2-3">
          <mxGeometry relative="1" as="geometry" />
        </mxCell>
        <mxCell id="U5IXbuqL92R9YRNmgBX2-0" value="Web3Signer &lt;br&gt;Load Balancer" style="sketch=0;outlineConnect=0;fontColor=#232F3E;gradientColor=none;fillColor=#4D27AA;strokeColor=none;dashed=0;verticalLabelPosition=bottom;verticalAlign=top;align=center;html=1;fontSize=12;fontStyle=0;aspect=fixed;pointerEvents=1;shape=mxgraph.aws4.network_load_balancer;" vertex="1" parent="AiXYY7BvG-ptJ4Pdi_vA-1">
          <mxGeometry x="291" y="410" width="48" height="48" as="geometry" />
        </mxCell>
        <mxCell id="U5IXbuqL92R9YRNmgBX2-3" value="Auto Scaling group" style="points=[[0,0],[0.25,0],[0.5,0],[0.75,0],[1,0],[1,0.25],[1,0.5],[1,0.75],[1,1],[0.75,1],[0.5,1],[0.25,1],[0,1],[0,0.75],[0,0.5],[0,0.25]];outlineConnect=0;gradientColor=none;html=1;whiteSpace=wrap;fontSize=12;fontStyle=0;container=1;pointerEvents=0;collapsible=0;recursiveResize=0;shape=mxgraph.aws4.groupCenter;grIcon=mxgraph.aws4.group_auto_scaling_group;grStroke=1;strokeColor=#D86613;fillColor=none;verticalAlign=top;align=center;fontColor=#D86613;dashed=1;spacingTop=25;" vertex="1" parent="AiXYY7BvG-ptJ4Pdi_vA-1">
          <mxGeometry x="390" y="353" width="190" height="162" as="geometry" />
        </mxCell>
        <mxCell id="U5IXbuqL92R9YRNmgBX2-4" value="EC2 Instances&lt;br&gt;(Web3Signer in Nitro Enclave)" style="sketch=0;points=[[0,0,0],[0.25,0,0],[0.5,0,0],[0.75,0,0],[1,0,0],[0,1,0],[0.25,1,0],[0.5,1,0],[0.75,1,0],[1,1,0],[0,0.25,0],[0,0.5,0],[0,0.75,0],[1,0.25,0],[1,0.5,0],[1,0.75,0]];outlineConnect=0;fontColor=#232F3E;gradientColor=#F78E04;gradientDirection=north;fillColor=#D05C17;strokeColor=#ffffff;dashed=0;verticalLabelPosition=bottom;verticalAlign=top;align=center;html=1;fontSize=12;fontStyle=0;aspect=fixed;shape=mxgraph.aws4.resourceIcon;resIcon=mxgraph.aws4.ec2;" vertex="1" parent="U5IXbuqL92R9YRNmgBX2-3">
          <mxGeometry x="71" y="62" width="48" height="48" as="geometry" />
        </mxCell>
        <mxCell id="fMYGTP9QaO-dXHhESoqc-1" value="&lt;b&gt;Validator Public Keys loaded:&lt;br&gt;&lt;/b&gt;0xa957cf9&lt;br&gt;0xb821c31&lt;br&gt;0x8f1942c&lt;br&gt;0x89a263f" style="whiteSpace=wrap;html=1;align=left;" vertex="1" parent="AiXYY7BvG-ptJ4Pdi_vA-1">
          <mxGeometry x="320" y="280" width="110" height="90" as="geometry" />
        </mxCell>
        <mxCell id="fMYGTP9QaO-dXHhESoqc-2" value="&lt;b&gt;Use validator key:&lt;br&gt;&lt;/b&gt;0xa957cf9&lt;br&gt;0xb821c31" style="whiteSpace=wrap;html=1;align=left;" vertex="1" parent="AiXYY7BvG-ptJ4Pdi_vA-1">
          <mxGeometry x="31" y="298" width="110" height="60" as="geometry" />
        </mxCell>
        <mxCell id="fMYGTP9QaO-dXHhESoqc-3" value="&lt;b&gt;Use validator key:&lt;br&gt;&lt;/b&gt;0x8f1942c" style="whiteSpace=wrap;html=1;align=left;" vertex="1" parent="AiXYY7BvG-ptJ4Pdi_vA-1">
          <mxGeometry x="30" y="404" width="110" height="60" as="geometry" />
        </mxCell>
        <mxCell id="fMYGTP9QaO-dXHhESoqc-7" style="edgeStyle=orthogonalEdgeStyle;rounded=0;orthogonalLoop=1;jettySize=auto;html=1;exitX=1;exitY=0.5;exitDx=0;exitDy=0;exitPerimeter=0;" edge="1" parent="AiXYY7BvG-ptJ4Pdi_vA-1" source="fMYGTP9QaO-dXHhESoqc-4" target="U5IXbuqL92R9YRNmgBX2-0">
          <mxGeometry relative="1" as="geometry">
            <Array as="points">
              <mxPoint x="230" y="534" />
              <mxPoint x="230" y="434" />
            </Array>
          </mxGeometry>
        </mxCell>
        <mxCell id="fMYGTP9QaO-dXHhESoqc-4" value="Validator Client 3" style="sketch=0;points=[[0,0,0],[0.25,0,0],[0.5,0,0],[0.75,0,0],[1,0,0],[0,1,0],[0.25,1,0],[0.5,1,0],[0.75,1,0],[1,1,0],[0,0.25,0],[0,0.5,0],[0,0.75,0],[1,0.25,0],[1,0.5,0],[1,0.75,0]];outlineConnect=0;fontColor=#232F3E;gradientColor=#F78E04;gradientDirection=north;fillColor=#D05C17;strokeColor=#ffffff;dashed=0;verticalLabelPosition=bottom;verticalAlign=top;align=center;html=1;fontSize=12;fontStyle=0;aspect=fixed;shape=mxgraph.aws4.resourceIcon;resIcon=mxgraph.aws4.ec2;" vertex="1" parent="AiXYY7BvG-ptJ4Pdi_vA-1">
          <mxGeometry x="160" y="510" width="48" height="48" as="geometry" />
        </mxCell>
        <mxCell id="fMYGTP9QaO-dXHhESoqc-6" value="&lt;b&gt;Use validator key:&lt;br&gt;&lt;/b&gt;0x89a263f" style="whiteSpace=wrap;html=1;align=left;" vertex="1" parent="AiXYY7BvG-ptJ4Pdi_vA-1">
          <mxGeometry x="30" y="504" width="110" height="60" as="geometry" />
        </mxCell>
      </root>
    </mxGraphModel>
  </diagram>
</mxfile>
